<svg xmlns="http://www.w3.org/2000/svg" width="19" height="16" viewBox="0 0 19 16">
    <g fill="none" fill-rule="evenodd" opacity=".8">
        <g fill="#FFF" fill-rule="nonzero">
            <g>
                <path d="M220.165 9.842l11.318-4.663c1.117-.486 4.905-2.04 4.905-2.04s1.75-.68 1.603.971c-.048.68-.437 3.06-.825 5.635l-1.215 7.626s-.097 1.117-.923 1.311c-.825.195-2.185-.68-2.428-.874-.195-.146-3.643-2.332-4.906-3.4-.34-.292-.729-.875.048-1.555 1.749-1.603 3.838-3.594 5.1-4.857.583-.583 1.166-1.943-1.262-.291l-6.85 4.614s-.776.486-2.234.049c-1.457-.437-3.157-1.02-3.157-1.02s-1.166-.729.826-1.506z" transform="translate(-242 -699) translate(23 696)"/>
            </g>
        </g>
    </g>
</svg>
